<svg width="18" height="26" viewBox="0 0 18 26" fill="none" xmlns="http://www.w3.org/2000/svg">
<path d="M16 1L14 0L11.5 6V11.5H6.5V6L4 0L2 1L1 7L3 13L0 19V23L3 26H15L18 23V19L15 13L17 7L16 1Z" fill="#FFAFBE"/>
<path d="M6 19.5V18H4V19.5L4.5 20H5.5L6 19.5Z" fill="black"/>
<path d="M14 19.5V18H12V19.5L12.5 20H13.5L14 19.5Z" fill="black"/>
<path d="M12.5 22.5L10.5 20.5H7.5L5.5 22.5L6.5 24H8L9 23L10 24H11.5L12.5 22.5Z" fill="white"/>
<path d="M10 21.5V20H8V21.5L8.5 22H9.5L10 21.5Z" fill="#FF7993"/>
</svg>
